<svg width="27" height="23" viewBox="0 0 27 23" fill="none" xmlns="http://www.w3.org/2000/svg">
<g clip-path="url(#clip0_229_1723)">
<path d="M22.5 2.5H4.5C3.90326 2.5 3.33097 2.73705 2.90901 3.15901C2.48705 3.58097 2.25 4.15326 2.25 4.75V18.25C2.25 18.8467 2.48705 19.419 2.90901 19.841C3.33097 20.2629 3.90326 20.5 4.5 20.5H22.5C23.0967 20.5 23.669 20.2629 24.091 19.841C24.5129 19.419 24.75 18.8467 24.75 18.25V4.75C24.75 4.15326 24.5129 3.58097 24.091 3.15901C23.669 2.73705 23.0967 2.5 22.5 2.5ZM11.25 18.25C9.91498 18.25 8.60993 17.8541 7.4999 17.1124C6.38987 16.3707 5.5247 15.3165 5.01381 14.0831C4.50292 12.8497 4.36925 11.4925 4.6297 10.1831C4.89015 8.87377 5.53303 7.67103 6.47703 6.72703C7.42103 5.78303 8.62377 5.14015 9.93314 4.8797C11.2425 4.61925 12.5997 4.75292 13.8331 5.26381C15.0665 5.7747 16.1207 6.63987 16.8624 7.7499C17.6041 8.85993 18 10.165 18 11.5C18 13.2902 17.2888 15.0071 16.023 16.273C14.7571 17.5388 13.0402 18.25 11.25 18.25ZM21.375 7C21.1525 7 20.935 6.93402 20.75 6.8104C20.565 6.68679 20.4208 6.51109 20.3356 6.30552C20.2505 6.09995 20.2282 5.87375 20.2716 5.65552C20.315 5.43729 20.4222 5.23684 20.5795 5.0795C20.7368 4.92217 20.9373 4.81502 21.1555 4.77162C21.3738 4.72821 21.6 4.75049 21.8055 4.83564C22.0111 4.92078 22.1868 5.06498 22.3104 5.24998C22.434 5.43499 22.5 5.6525 22.5 5.875C22.5 6.17337 22.3815 6.45952 22.1705 6.6705C21.9595 6.88147 21.6734 7 21.375 7ZM16.875 11.7812C16.875 14.3125 14.8612 14.3687 14.1975 13.03C14.0498 12.783 13.8454 12.5748 13.6012 12.4225C13.3612 12.2645 13.0878 12.1644 12.8025 12.13C12.6805 12.3928 12.5041 12.6267 12.285 12.8162C13.41 14.8975 12.96 17.125 10.9462 17.125C8.4375 17.125 8.38125 15.1112 9.70875 14.4475C9.95273 14.3007 10.1604 14.1008 10.3162 13.8625C10.4729 13.6249 10.5765 13.3563 10.62 13.075C10.3449 12.9632 10.1015 12.7855 9.91125 12.5575C7.875 13.6712 5.625 13.2212 5.625 11.2188C5.625 8.6875 7.61625 8.62 8.28 9.95875C8.42437 10.2083 8.62947 10.4172 8.87625 10.5662C9.11802 10.7229 9.39026 10.8264 9.675 10.87C9.78415 10.5966 9.96248 10.3562 10.1925 10.1725C9.0675 8.125 9.5175 5.875 11.52 5.875C14.0512 5.875 14.1075 7.8775 12.7688 8.5525C12.5223 8.69594 12.3139 8.89659 12.1613 9.1375C12.0032 9.37752 11.9031 9.65095 11.8688 9.93625C12.1327 10.0512 12.3673 10.2243 12.555 10.4425C14.625 9.3175 16.875 9.7675 16.875 11.7812Z" fill="#F79E37"/>
</g>
<defs>
<clipPath id="clip0_229_1723">
<rect width="27" height="23" fill="white"/>
</clipPath>
</defs>
</svg>
