<svg width="40" height="40" viewBox="0 0 40 40" fill="none" xmlns="http://www.w3.org/2000/svg">
<path fill-rule="evenodd" clip-rule="evenodd" d="M19.5 18.625C17.774 18.625 16.375 17.226 16.375 15.5C16.375 13.774 17.774 12.375 19.5 12.375C21.226 12.375 22.625 13.774 22.625 15.5C22.625 17.226 21.226 18.625 19.5 18.625ZM19.5 10.2917C16.624 10.2917 14.2917 12.6229 14.2917 15.5C14.2917 18.3771 16.624 20.7083 19.5 20.7083C22.376 20.7083 24.7083 18.3771 24.7083 15.5C24.7083 12.6229 22.376 10.2917 19.5 10.2917ZM19.5 33.2083C17.7677 33.2177 9.08333 19.8552 9.08333 15.5C9.08333 9.74792 13.7469 5.08333 19.5 5.08333C25.2531 5.08333 29.9167 9.74792 29.9167 15.5C29.9167 19.7969 21.2052 33.2177 19.5 33.2083ZM19.5 3C12.5969 3 7 8.59687 7 15.5C7 20.7271 17.4219 36.3448 19.5 36.3333C21.5458 36.3448 32 20.6562 32 15.5C32 8.59687 26.4031 3 19.5 3Z" fill="#F59D37"/>
</svg>
