<svg width="15" height="15" viewBox="0 0 15 15" fill="none" xmlns="http://www.w3.org/2000/svg">
<g clip-path="url(#clip0_159_1091)">
<path fill-rule="evenodd" clip-rule="evenodd" d="M2.7933 0H12.2067V0.931102H15V4.24116C15 5.11903 14.6512 5.96096 14.0305 6.58172C13.5244 7.08783 12.8712 7.41312 12.1715 7.51601C12.0686 8.21578 11.7434 8.86891 11.2372 9.375C10.6285 9.98367 9.80719 10.3309 8.94789 10.3441V11.6899C8.94789 11.7998 8.99148 11.9052 9.06922 11.9829C9.14695 12.0606 9.25234 12.1043 9.36219 12.1043C9.86969 12.1043 10.3563 12.3059 10.7152 12.6647C11.074 13.0235 11.2756 13.5102 11.2756 14.0177V15H3.7244V14.0177C3.7244 13.5102 3.926 13.0235 4.28483 12.6647C4.64366 12.3059 5.13033 12.1043 5.6378 12.1043C5.74769 12.1043 5.85309 12.0606 5.93078 11.9829C6.00848 11.9052 6.05214 11.7998 6.05214 11.6899V10.3441C5.19279 10.3309 4.37146 9.98367 3.76279 9.375C3.25667 8.86891 2.93139 8.21578 2.8285 7.51601C2.12873 7.41312 1.4756 7.08783 0.969492 6.58172C0.348734 5.96096 0 5.11903 0 4.24116V0.931102H2.7933V0ZM2.7933 1.96462H1.03352V4.24116C1.03352 4.84493 1.27337 5.42398 1.7003 5.85091C2.00322 6.15383 2.38272 6.36257 2.7933 6.45827V1.96462ZM12.2067 6.45827V1.96462H13.9665V4.24116C13.9665 4.84493 13.7266 5.42398 13.2997 5.85091C12.9968 6.15383 12.6173 6.36257 12.2067 6.45827ZM7.49373 2.5L8.08273 4.40789H10L8.44609 5.59211L9.06016 7.5L7.50626 6.3158L5.95239 7.5L6.55389 5.57894L5 4.39474H6.91729L7.49373 2.5Z" fill="url(#paint0_linear_159_1091)"/>
</g>
<defs>
<linearGradient id="paint0_linear_159_1091" x1="7.5" y1="0" x2="7.5" y2="15" gradientUnits="userSpaceOnUse">
<stop stop-color="#FFF8EA"/>
<stop offset="1" stop-color="#FFC13B"/>
</linearGradient>
<clipPath id="clip0_159_1091">
<rect width="15" height="15" fill="white"/>
</clipPath>
</defs>
</svg>
