<svg width="40" height="40" viewBox="0 0 40 40" fill="none" xmlns="http://www.w3.org/2000/svg">
<path d="M35.125 1.57504C35.0906 1.58129 35.0562 1.59067 35.025 1.60004H32C31.7844 1.60004 31.575 1.69692 31.425 1.85004L20.175 13.275L21.15 14.525L24.175 11.475L24.725 16.7L23.85 18L24.75 19.175C24.7906 19.2282 24.8375 19.2719 24.875 19.325L34.4 5.05004V22.625C33.9219 22.9032 33.6 23.4094 33.6 24C33.6 24.5907 33.9219 25.0969 34.4 25.375V26.375C34.4 27.125 34.8875 27.8313 35.65 28.05C36.4031 28.2657 36.9312 29.0125 36.775 29.9C36.6656 30.5188 36.1219 31.0657 35.5 31.175C34.45 31.3594 33.6 30.5907 33.6 29.6C33.6031 29.3125 33.4531 29.0438 33.2031 28.8969C32.9531 28.7532 32.6469 28.7532 32.3969 28.8969C32.1469 29.0438 31.9969 29.3125 32 29.6C32 31.5469 33.7906 33.0969 35.775 32.75C37.0844 32.5188 38.1219 31.4844 38.35 30.175C38.6437 28.5 37.5937 26.9563 36.075 26.525C36.0437 26.5157 36 26.45 36 26.375V25.375C36.4781 25.0969 36.8 24.5907 36.8 24C36.8 23.4094 36.4781 22.9032 36 22.625V2.45004C36.0031 2.41254 36.0031 2.36254 36 2.32504C35.9937 2.29067 35.9844 2.25629 35.975 2.22504C35.9594 2.15629 35.9344 2.08754 35.9 2.02504C35.8656 1.96254 35.825 1.90317 35.775 1.85004C35.7531 1.82192 35.7281 1.79692 35.7 1.77504C35.6406 1.72504 35.5718 1.68129 35.5 1.65004C35.475 1.64067 35.4531 1.63129 35.425 1.62504C35.3281 1.59067 35.2281 1.57192 35.125 1.57504ZM32.325 3.20004H33.7L30.975 7.30004L30.75 4.77504L32.325 3.20004ZM29.275 6.30004L29.475 8.75004L26.675 8.92504L29.275 6.30004ZM28.925 10.375L26.1 14.6L25.675 10.6L28.925 10.375ZM6.39998 12.8C5.0781 12.8 3.99998 13.8782 3.99998 15.2V24.8C3.99998 26.1219 5.0781 27.2 6.39998 27.2H8.79998V28.8H6.39998C3.7531 28.8 1.59998 30.9532 1.59998 33.6C1.59998 36.2469 3.7531 38.4 6.39998 38.4H24C26.6469 38.4 28.8 36.2469 28.8 33.6C28.8 30.9532 26.6469 28.8 24 28.8H21.6V27.2H22.4C23.7219 27.2 24.8 26.1219 24.8 24.8V21.6C24.7937 20.9 24.5531 20.2032 24.125 19.65L19.525 13.725C19.0719 13.1469 18.3594 12.8 17.625 12.8H6.39998ZM14.65 14.4H17.625C17.8719 14.4 18.1 14.5063 18.25 14.7L22.875 20.65C23.0875 20.9219 23.1937 21.2532 23.2 21.6H16.6L14.65 14.4ZM10.4 27.2H20V28.8H10.4V27.2ZM6.39998 32C7.28435 32 7.99998 32.7157 7.99998 33.6C7.99998 34.4844 7.28435 35.2 6.39998 35.2C5.5156 35.2 4.79998 34.4844 4.79998 33.6C4.79998 32.7157 5.5156 32 6.39998 32ZM11.2 32C12.0844 32 12.8 32.7157 12.8 33.6C12.8 34.4844 12.0844 35.2 11.2 35.2C10.3156 35.2 9.59998 34.4844 9.59998 33.6C9.59998 32.7157 10.3156 32 11.2 32ZM19.2 32C20.0844 32 20.8 32.7157 20.8 33.6C20.8 34.4844 20.0844 35.2 19.2 35.2C18.3156 35.2 17.6 34.4844 17.6 33.6C17.6 32.7157 18.3156 32 19.2 32ZM24 32C24.8844 32 25.6 32.7157 25.6 33.6C25.6 34.4844 24.8844 35.2 24 35.2C23.1156 35.2 22.4 34.4844 22.4 33.6C22.4 32.7157 23.1156 32 24 32Z" fill="#F79E37"/>
</svg>
