<svg width="27" height="28" viewBox="0 0 27 28" fill="none" xmlns="http://www.w3.org/2000/svg">
<path d="M9.82288 5.21125C11.459 2.18159 12.277 0.666748 13.5 0.666748C14.7231 0.666748 15.5411 2.18157 17.1772 5.21124L17.6004 5.99505C18.0654 6.85599 18.2978 7.28647 18.6604 7.57049C19.0228 7.85452 19.4741 7.95995 20.377 8.17081L21.199 8.36279C24.376 9.10483 25.9646 9.47584 26.3426 10.7304C26.7205 11.9849 25.6376 13.2922 23.4716 15.9066L22.9113 16.583C22.2958 17.3259 21.988 17.6974 21.8495 18.157C21.7112 18.6166 21.7577 19.1122 21.8507 20.1035L21.9354 21.0059C22.2628 24.4942 22.4266 26.2383 21.4372 27.0137C20.4477 27.789 18.9603 27.0821 15.9856 25.6683L15.216 25.3025C14.3708 24.9007 13.9481 24.6998 13.5 24.6998C13.052 24.6998 12.6293 24.9007 11.7841 25.3025L11.0145 25.6683C8.03975 27.0821 6.5524 27.789 5.56295 27.0137C4.57349 26.2383 4.73722 24.4942 5.06468 21.0059L5.14939 20.1035C5.24246 19.1122 5.28898 18.6166 5.15053 18.157C5.01209 17.6974 4.70435 17.3259 4.08886 16.583L3.52851 15.9066C1.36257 13.2922 0.279602 11.9849 0.657544 10.7304C1.03549 9.47584 2.62403 9.10483 5.80112 8.36279L6.62307 8.17081C7.52589 7.95995 7.9773 7.85452 8.33976 7.57049C8.70221 7.28647 8.93469 6.856 9.39961 5.99505L9.82288 5.21125Z" fill="#F59C37"/>
</svg>
