<svg width="23" height="22" viewBox="0 0 23 22" fill="none" xmlns="http://www.w3.org/2000/svg">
<path d="M15.5455 13.9939L15.0077 14.5451C15.0077 14.5451 13.7297 15.8557 10.2411 12.2785C6.75261 8.70137 8.03066 7.39086 8.03066 7.39086L8.36924 7.04366C9.20342 6.18835 9.28205 4.81516 8.55424 3.81268L7.06563 1.76201C6.16489 0.521232 4.42437 0.357327 3.39196 1.41595L1.53896 3.31601C1.02705 3.84092 0.684005 4.52136 0.725608 5.27621C0.832035 7.20733 1.67928 11.3623 6.407 16.2101C11.4205 21.3509 16.1247 21.5552 18.0484 21.3702C18.6568 21.3118 19.186 20.9922 19.6124 20.5549L21.2895 18.8354C22.4215 17.6746 22.1023 15.6845 20.6539 14.8726L18.3984 13.6082C17.4474 13.075 16.2888 13.2316 15.5455 13.9939Z" fill="white"/>
</svg>
