<svg width="19" height="20" viewBox="0 0 19 20" fill="none" xmlns="http://www.w3.org/2000/svg">
<g clip-path="url(#clip0_29_222)">
<path d="M0.588234 7.13124H18.2353M4.5098 1.36493V3.28703M14.3137 1.36493V3.28703M3.52941 10.0144H5.49019M8.43137 10.0144H10.3922M13.3333 10.0144H15.2941M3.52941 12.8976H5.49019M8.43137 12.8976H10.3922M13.3333 12.8976H15.2941M3.52941 15.7807H5.49019M8.43137 15.7807H10.3922M13.3333 15.7807H15.2941M3.72549 18.6639H15.098C16.1962 18.6639 16.7453 18.6639 17.1647 18.4544C17.5336 18.2701 17.8336 17.976 18.0216 17.6144C18.2353 17.2033 18.2353 16.665 18.2353 15.5885V6.3624C18.2353 5.28592 18.2353 4.74768 18.0216 4.33652C17.8336 3.97485 17.5336 3.68081 17.1647 3.49653C16.7453 3.28703 16.1962 3.28703 15.098 3.28703H3.72549C2.62735 3.28703 2.07827 3.28703 1.65884 3.49653C1.28989 3.68081 0.98993 3.97485 0.80195 4.33652C0.588234 4.74768 0.588234 5.28592 0.588234 6.3624V15.5885C0.588234 16.665 0.588234 17.2033 0.80195 17.6144C0.98993 17.976 1.28989 18.2701 1.65884 18.4544C2.07827 18.6639 2.62734 18.6639 3.72549 18.6639Z" stroke="white" stroke-width="2" stroke-linecap="round"/>
</g>
<defs>
<clipPath id="clip0_29_222">
<rect width="19" height="19" fill="white" transform="translate(0 0.5)"/>
</clipPath>
</defs>
</svg>
