<svg width="17" height="17" viewBox="0 0 17 17" fill="none" xmlns="http://www.w3.org/2000/svg">
<path d="M6.95309 3.65986C7.81023 2.12222 8.23878 1.35339 8.87955 1.35339C9.52032 1.35339 9.94888 2.12221 10.806 3.65985L11.0277 4.05766C11.2714 4.4946 11.3931 4.71308 11.583 4.85723C11.7729 5.00139 12.0094 5.05489 12.4824 5.16191L12.913 5.25934C14.5775 5.63595 15.4097 5.82425 15.6077 6.46097C15.8057 7.09766 15.2384 7.76116 14.1036 9.08804L13.8101 9.43133C13.4876 9.80839 13.3264 9.99692 13.2538 10.2302C13.1814 10.4634 13.2057 10.715 13.2544 11.2181L13.2988 11.6761C13.4704 13.4465 13.5562 14.3317 13.0378 14.7252C12.5194 15.1187 11.7402 14.7599 10.1817 14.0424L9.77855 13.8567C9.33572 13.6528 9.1143 13.5508 8.87955 13.5508C8.6448 13.5508 8.42339 13.6528 7.98055 13.8567L7.57737 14.0424C6.01891 14.7599 5.23969 15.1187 4.72131 14.7252C4.20294 14.3317 4.28872 13.4465 4.46027 11.6761L4.50465 11.2181C4.55341 10.715 4.57778 10.4634 4.50525 10.2302C4.43272 9.99692 4.27149 9.80839 3.94904 9.43133L3.65547 9.08804C2.52074 7.76116 1.95337 7.09766 2.15138 6.46097C2.34938 5.82425 3.18162 5.63595 4.84609 5.25934L5.27671 5.16191C5.7497 5.05489 5.98619 5.00139 6.17608 4.85723C6.36597 4.71308 6.48776 4.49461 6.73134 4.05766L6.95309 3.65986Z" fill="#FE6016"/>
</svg>
