<svg width="29" height="37" viewBox="0 0 29 37" fill="none" xmlns="http://www.w3.org/2000/svg">
<path fill-rule="evenodd" clip-rule="evenodd" d="M14.5 17.575C12.6461 17.575 11.1435 16.0961 11.1435 14.2714C11.1435 12.4467 12.6461 10.9678 14.5 10.9678C16.3539 10.9678 17.8565 12.4467 17.8565 14.2714C17.8565 16.0961 16.3539 17.575 14.5 17.575ZM14.5 8.76546C11.4109 8.76546 8.90586 11.2299 8.90586 14.2714C8.90586 17.3129 11.4109 19.7774 14.5 19.7774C17.5891 19.7774 20.0941 17.3129 20.0941 14.2714C20.0941 11.2299 17.5891 8.76546 14.5 8.76546ZM14.5 32.9917C12.6394 33.0016 3.31172 18.8755 3.31172 14.2714C3.31172 8.19064 8.32071 3.25951 14.5 3.25951C20.6793 3.25951 25.6883 8.19064 25.6883 14.2714C25.6883 18.8138 16.3315 33.0016 14.5 32.9917ZM14.5 1.05713C7.08553 1.05713 1.07407 6.97383 1.07407 14.2714C1.07407 19.7972 12.2679 36.3073 14.5 36.2952C16.6974 36.3073 27.9259 19.7223 27.9259 14.2714C27.9259 6.97383 21.9145 1.05713 14.5 1.05713Z" fill="#F59D37"/>
</svg>
