<svg width="28" height="28" viewBox="0 0 28 28" fill="none" xmlns="http://www.w3.org/2000/svg">
<path d="M13.9999 1.7499C10.5649 1.69187 7.24699 2.99849 4.77393 5.38323C2.30086 7.76797 0.874491 11.0362 0.807617 14.4711C0.874491 17.906 2.30086 21.1741 4.77393 23.5589C7.24699 25.9436 10.5649 27.2502 13.9999 27.1922C17.435 27.2502 20.7529 25.9436 23.2259 23.5589C25.699 21.1741 27.1254 17.906 27.1922 14.4711C27.1254 11.0362 25.699 7.76797 23.2259 5.38323C20.7529 2.99849 17.435 1.69187 13.9999 1.7499ZM24.8459 11.418C23.1273 10.3296 21.2025 9.60778 19.192 9.29779C18.8925 7.48607 18.2837 5.73934 17.3922 4.13394C19.1352 4.64674 20.7259 5.57881 22.0253 6.84862C23.3247 8.11843 24.2931 9.6873 24.8459 11.418ZM13.9999 25.3076C12.9163 25.3076 11.5405 23.3476 10.7867 19.9459C11.8538 20.0624 12.9264 20.1222 13.9999 20.1249C15.0734 20.1222 16.146 20.0624 17.2132 19.9459C16.4593 23.3476 15.0836 25.3076 13.9999 25.3076ZM13.9999 18.2403C12.8125 18.2399 11.6261 18.1676 10.4474 18.0236C10.1583 15.664 10.1583 13.2781 10.4474 10.9186C12.8069 10.6295 15.1929 10.6295 17.5524 10.9186C17.6964 12.0972 17.7688 13.2836 17.7692 14.4711C17.7688 15.6585 17.6964 16.8449 17.5524 18.0236C16.3737 18.1676 15.1874 18.2399 13.9999 18.2403ZM8.52512 17.6843C5.12339 16.9305 3.16339 15.5547 3.16339 14.4711C3.16339 13.3874 5.12339 12.0116 8.52512 11.2578C8.28644 13.3933 8.28644 15.5488 8.52512 17.6843ZM13.9999 3.63452C15.0836 3.63452 16.4593 5.59452 17.2132 8.99625C16.146 8.87971 15.0734 8.81995 13.9999 8.81721C12.9264 8.81995 11.8538 8.87971 10.7867 8.99625C11.5405 5.59452 12.9163 3.63452 13.9999 3.63452ZM19.4747 11.2578C22.8765 12.0116 24.8365 13.3874 24.8365 14.4711C24.8365 15.5547 22.8765 16.9305 19.4747 17.6843C19.5913 16.6172 19.651 15.5446 19.6538 14.4711C19.651 13.3976 19.5913 12.325 19.4747 11.2578ZM10.6076 4.13394C9.72372 5.73766 9.12134 7.48106 8.82666 9.28836C6.81618 9.59836 4.89138 10.3202 3.17281 11.4086C3.72511 9.68176 4.69127 8.1162 5.98712 6.84827C7.28297 5.58034 8.8692 4.6485 10.6076 4.13394ZM3.15396 17.5241C4.87253 18.6125 6.79734 19.3343 8.80781 19.6443C9.10145 21.4549 9.70386 23.2015 10.5888 24.8082C8.8493 24.2927 7.26239 23.3594 5.96646 22.0898C4.67053 20.8201 3.70495 19.2527 3.15396 17.5241ZM17.3922 24.8082C18.2761 23.2044 18.8785 21.4611 19.1732 19.6537C21.1837 19.3438 23.1085 18.622 24.827 17.5336C24.2747 19.2604 23.3086 20.8259 22.0127 22.0938C20.7169 23.3618 19.1306 24.2936 17.3922 24.8082Z" fill="#F79E37"/>
</svg>
