<svg width="16" height="16" viewBox="0 0 16 16" fill="none" xmlns="http://www.w3.org/2000/svg">
    <path fill-rule="evenodd" clip-rule="evenodd"
        d="M7.95959 12.263C10.2591 12.263 12.1232 10.3989 12.1232 8.09944C12.1232 5.79994 10.2591 3.93583 7.95959 3.93583C5.6601 3.93583 3.79599 5.79994 3.79599 8.09944C3.79599 10.3989 5.6601 12.263 7.95959 12.263ZM7.95959 10.8752C9.49256 10.8752 10.7353 9.6324 10.7353 8.09944C10.7353 6.56644 9.49256 5.3237 7.95959 5.3237C6.4266 5.3237 5.18386 6.56644 5.18386 8.09944C5.18386 9.6324 6.4266 10.8752 7.95959 10.8752Z"
        fill="currentColor" />
    <path
        d="M12.1232 3.2419C11.7399 3.2419 11.4293 3.55259 11.4293 3.93583C11.4293 4.31908 11.7399 4.62977 12.1232 4.62977C12.5065 4.62977 12.8171 4.31908 12.8171 3.93583C12.8171 3.55259 12.5065 3.2419 12.1232 3.2419Z"
        fill="currentColor" />
    <path fill-rule="evenodd" clip-rule="evenodd"
        d="M0.780129 2.73953C0.326324 3.63017 0.326324 4.79609 0.326324 7.12793V9.07094C0.326324 11.4028 0.326324 12.5687 0.780129 13.4593C1.17931 14.2428 1.81626 14.8797 2.59969 15.2789C3.49034 15.7327 4.65626 15.7327 6.98809 15.7327H8.9311C11.2629 15.7327 12.4289 15.7327 13.3195 15.2789C14.1029 14.8797 14.7399 14.2428 15.139 13.4593C15.5929 12.5687 15.5929 11.4028 15.5929 9.07094V7.12793C15.5929 4.79609 15.5929 3.63017 15.139 2.73953C14.7399 1.95609 14.1029 1.31915 13.3195 0.919968C12.4289 0.466164 11.2629 0.466164 8.9311 0.466164H6.98809C4.65626 0.466164 3.49034 0.466164 2.59969 0.919968C1.81626 1.31915 1.17931 1.95609 0.780129 2.73953ZM8.9311 1.85403H6.98809C5.79927 1.85403 4.99112 1.85511 4.36646 1.90615C3.75799 1.95586 3.44683 2.04597 3.22977 2.15657C2.70748 2.42269 2.28285 2.84732 2.01673 3.36961C1.90613 3.58667 1.81602 3.89783 1.76631 4.5063C1.71527 5.13096 1.71419 5.93911 1.71419 7.12793V9.07094C1.71419 10.2598 1.71527 11.0679 1.76631 11.6926C1.81602 12.3011 1.90613 12.6122 2.01673 12.8293C2.28285 13.3515 2.70748 13.7762 3.22977 14.0423C3.44683 14.1529 3.75799 14.243 4.36646 14.2927C4.99112 14.3437 5.79927 14.3448 6.98809 14.3448H8.9311C10.1199 14.3448 10.928 14.3437 11.5527 14.2927C12.1612 14.243 12.4724 14.1529 12.6894 14.0423C13.2117 13.7762 13.6363 13.3515 13.9024 12.8293C14.0131 12.6122 14.1032 12.3011 14.1529 11.6926C14.2039 11.0679 14.205 10.2598 14.205 9.07094V7.12793C14.205 5.93911 14.2039 5.13096 14.1529 4.5063C14.1032 3.89783 14.0131 3.58667 13.9024 3.36961C13.6363 2.84732 13.2117 2.42269 12.6894 2.15657C12.4724 2.04597 12.1612 1.95586 11.5527 1.90615C10.928 1.85511 10.1199 1.85403 8.9311 1.85403Z"
        fill="currentColor" />
</svg>