<svg width="19" height="18" viewBox="0 0 19 18" fill="none" xmlns="http://www.w3.org/2000/svg">
    <path fill-rule="evenodd" clip-rule="evenodd"
        d="M4.61579 17.0178V5.58298H0.815497V17.0178H4.61579V17.0178ZM2.71604 4.02232C4.04087 4.02232 4.86613 3.14352 4.86613 2.04624C4.84108 0.924567 4.04087 0.0705776 2.74089 0.0705776C1.4407 0.0706123 0.590836 0.924602 0.590836 2.04628C0.590836 3.14356 1.41565 4.02236 2.69103 4.02236L2.71604 4.02232ZM6.7191 17.0178C6.7191 17.0178 6.76896 6.65587 6.7191 5.58301H10.52V7.24131H10.4948C10.9945 6.46098 11.8949 5.3145 13.945 5.3145C16.4461 5.3145 18.3208 6.94881 18.3208 10.4612V17.0178H14.5205V10.9005C14.5205 9.36343 13.9707 8.31455 12.595 8.31455C11.5453 8.31455 10.9197 9.02166 10.645 9.70519C10.5444 9.94848 10.52 10.2902 10.52 10.632V17.0178H6.7191Z"
        fill="currentColor" />
</svg>