<svg width="19" height="14" viewBox="0 0 19 14" fill="none" xmlns="http://www.w3.org/2000/svg">
    <path fill-rule="evenodd" clip-rule="evenodd"
        d="M7.58818 9.54V4.24385C9.35773 5.12854 10.7282 5.98318 12.3491 6.90459C11.0122 7.69235 9.35773 8.57624 7.58818 9.54ZM17.4499 1.60983C17.1446 1.18253 16.6244 0.849922 16.0705 0.739806C14.4425 0.411334 4.28621 0.410399 2.65911 0.739806C2.21495 0.828273 1.81945 1.04211 1.47969 1.37435C0.0481294 2.7861 0.496714 10.3569 0.841776 11.5833C0.986878 12.1141 1.17446 12.4969 1.41069 12.7482C1.71506 13.0804 2.13178 13.3092 2.61044 13.4118C3.95087 13.7064 10.8565 13.8711 16.0422 13.456C16.52 13.3675 16.9429 13.1314 17.2764 12.7851C18.6001 11.3789 18.5098 3.38299 17.4499 1.60983Z"
        fill="currentColor" />
</svg>