<svg width="26" height="26" viewBox="0 0 26 26" fill="none" xmlns="http://www.w3.org/2000/svg">
<g clip-path="url(#clip0_24_178)">
<path fill-rule="evenodd" clip-rule="evenodd" d="M4.84171 0H21.1583V1.61391H26V7.35134C26 8.87299 25.3955 10.3323 24.3196 11.4083C23.4423 12.2856 22.3102 12.8494 21.0972 13.0277C20.9189 14.2407 20.3552 15.3728 19.4778 16.25C18.4228 17.305 16.9991 17.9068 15.5097 17.9298V20.2625C15.5097 20.4531 15.5852 20.6357 15.72 20.7703C15.8547 20.9051 16.0374 20.9808 16.2278 20.9808C17.1075 20.9808 17.951 21.3302 18.5729 21.9521C19.1949 22.5741 19.5444 23.4177 19.5444 24.2973V26H6.45562V24.2973C6.45562 23.4177 6.80507 22.5741 7.42704 21.9521C8.049 21.3302 8.89257 20.9808 9.77219 20.9808C9.96267 20.9808 10.1453 20.9051 10.28 20.7703C10.4147 20.6357 10.4904 20.4531 10.4904 20.2625V17.9298C9.00083 17.9068 7.5772 17.305 6.52217 16.25C5.6449 15.3728 5.08108 14.2407 4.90273 13.0277C3.68979 12.8494 2.55771 12.2856 1.68045 11.4083C0.604472 10.3323 0 8.87299 0 7.35134V1.61391H4.84171V0ZM4.84171 3.40534H1.79143V7.35134C1.79143 8.39788 2.20717 9.40156 2.94718 10.1416C3.47225 10.6666 4.13005 11.0285 4.84171 11.1943V3.40534ZM21.1583 11.1943V3.40534H24.2086V7.35134C24.2086 8.39788 23.7928 9.40156 23.0528 10.1416C22.5278 10.6666 21.8699 11.0285 21.1583 11.1943ZM12.9891 4.33333L14.0101 7.64034H17.3333L14.6399 9.69299L15.7043 13L13.0108 10.9474L10.3175 13L11.3601 9.67016L8.66667 7.61755H11.99L12.9891 4.33333Z" fill="url(#paint0_linear_24_178)"/>
</g>
<defs>
<linearGradient id="paint0_linear_24_178" x1="13" y1="0" x2="13" y2="26" gradientUnits="userSpaceOnUse">
<stop stop-color="#FFC13B"/>
<stop offset="1" stop-color="#E5462F"/>
</linearGradient>
<clipPath id="clip0_24_178">
<rect width="26" height="26" fill="white"/>
</clipPath>
</defs>
</svg>
