<svg width="34" height="34" viewBox="0 0 34 34" fill="none" xmlns="http://www.w3.org/2000/svg">
<path d="M2 6.16667C2 20.434 13.566 32 27.8333 32C28.477 32 29.1152 31.9765 29.7472 31.9302C30.4723 31.877 30.8348 31.8505 31.165 31.6605C31.4383 31.5032 31.6975 31.2242 31.8345 30.94C32 30.597 32 30.1968 32 29.3967V24.7012C32 24.0282 32 23.6917 31.8892 23.4033C31.7915 23.1485 31.6325 22.9217 31.4265 22.7427C31.1933 22.54 30.877 22.425 30.2447 22.195L24.9 20.2515C24.1642 19.984 23.7962 19.8502 23.4472 19.8728C23.1393 19.8928 22.8432 19.998 22.5915 20.1763C22.3062 20.3785 22.1048 20.7142 21.702 21.3857L20.3333 23.6667C15.9168 21.6665 12.3365 18.0815 10.3333 13.6667L12.6144 12.298C13.2858 11.8952 13.6214 11.6938 13.8237 11.4084C14.002 11.1568 14.1072 10.8606 14.1272 10.5528C14.1498 10.2038 14.016 9.83588 13.7485 9.10008L11.805 3.75535C11.575 3.12293 11.46 2.80672 11.2574 2.5735C11.0784 2.36748 10.8515 2.20858 10.5967 2.11075C10.3083 2 9.9718 2 9.29887 2H4.60335C3.80313 2 3.40302 2 3.05997 2.16542C2.77583 2.30243 2.4969 2.56168 2.3395 2.83505C2.14947 3.16512 2.12292 3.5277 2.06982 4.25288C2.02355 4.88477 2 5.52297 2 6.16667Z" stroke="#F79E37" stroke-width="3" stroke-linecap="round" stroke-linejoin="round"/>
</svg>
