<svg width="34" height="34" viewBox="0 0 34 34" fill="none" xmlns="http://www.w3.org/2000/svg">
<path d="M10.3333 2V2.69445M2.69445 10.3333H2M4.77778 4.77778L4.08333 4.08333M15.8888 4.77778L16.5833 4.08333M4.77778 15.8888L4.08333 16.5833M13.2207 8.66667C12.6444 7.67033 11.5671 7 10.3333 7C8.49238 7 7 8.49238 7 10.3333C7 11.5671 7.67033 12.6444 8.66667 13.2207M7 22L17.6805 12.0316C18.3215 11.4333 18.642 11.1341 19.0068 11.0211C19.3282 10.9216 19.6718 10.9216 19.9932 11.0211C20.358 11.1341 20.6785 11.4333 21.3195 12.0316L32 22M10.3333 18.8888V29.3333C10.3333 30.2668 10.3333 30.7335 10.515 31.09C10.6748 31.4037 10.9298 31.6585 11.2434 31.8183C11.5999 32 12.0666 32 13 32H26C26.9335 32 27.4002 32 27.7567 31.8183C28.0703 31.6585 28.3252 31.4037 28.485 31.09C28.6667 30.7335 28.6667 30.2668 28.6667 29.3333V18.8888" stroke="#F79E37" stroke-width="4" stroke-linecap="round" stroke-linejoin="round"/>
</svg>
