<svg width="40" height="40" viewBox="0 0 40 40" fill="none" xmlns="http://www.w3.org/2000/svg">
<path d="M20 36.6668C29.2047 36.6668 36.6667 29.2048 36.6667 20.0002C36.6667 10.7954 29.2047 3.3335 20 3.3335C10.7953 3.3335 3.33337 10.7954 3.33337 20.0002C3.33337 22.6663 3.95941 25.1862 5.07247 27.421C5.36827 28.0148 5.46672 28.6937 5.29524 29.3345L4.30256 33.0447C3.87162 34.6552 5.34506 36.1285 6.95562 35.6977L10.6657 34.705C11.3066 34.5335 11.9854 34.632 12.5793 34.9277C14.814 36.0408 17.3339 36.6668 20 36.6668Z" stroke="#F69D37" stroke-width="4"/>
<path d="M13.3334 20H13.3484M19.985 20H20M26.6517 20H26.6667" stroke="#F69D37" stroke-width="4" stroke-linecap="round" stroke-linejoin="round"/>
</svg>
