<svg width="34" height="34" viewBox="0 0 34 34" fill="none" xmlns="http://www.w3.org/2000/svg">
<g clip-path="url(#clip0_61_11)">
<path d="M17.0016 25.5032C21.6963 25.5032 25.5021 21.6974 25.5021 17.0027C25.5021 12.308 21.6963 8.50214 17.0016 8.50214C12.3069 8.50214 8.50104 12.308 8.50104 17.0027C8.50104 21.6974 12.3069 25.5032 17.0016 25.5032Z" fill="#F79E37"/>
<path fill-rule="evenodd" clip-rule="evenodd" d="M6.37553 16.9984C6.37553 15.8238 5.42513 14.8734 4.25053 14.8734H2.125C0.950406 14.8734 0 15.8238 0 16.9984C0 18.173 0.950406 19.1234 2.125 19.1234H4.25C5.42513 19.1234 6.37553 18.173 6.37553 16.9984Z" fill="#F79E37"/>
<path fill-rule="evenodd" clip-rule="evenodd" d="M6.4834 24.5114L4.9789 26.0164C4.14855 26.8462 4.14855 28.1913 4.9789 29.0211C5.80871 29.851 7.15384 29.851 7.98418 29.0211L9.48921 27.5167C10.319 26.6868 10.319 25.3412 9.48921 24.5114C8.65834 23.681 7.31374 23.681 6.4834 24.5114Z" fill="#F79E37"/>
<path fill-rule="evenodd" clip-rule="evenodd" d="M17.0016 27.6245C15.827 27.6245 14.8766 28.5749 14.8766 29.7495V31.875C14.8766 33.0496 15.827 34 17.0016 34C18.1762 34 19.1266 33.0496 19.1266 31.875L19.1245 29.7495C19.1266 28.5749 18.1741 27.6245 17.0016 27.6245Z" fill="#F79E37"/>
<path fill-rule="evenodd" clip-rule="evenodd" d="M27.5177 24.5135C26.6894 23.6816 25.3443 23.6816 24.5145 24.5114C23.6847 25.3412 23.6847 26.6868 24.5145 27.5167L26.0174 29.019C26.8472 29.8531 28.1924 29.8488 29.0222 29.019C29.852 28.1892 29.8541 26.8462 29.0222 26.0143L27.5177 24.5135Z" fill="#F79E37"/>
<path fill-rule="evenodd" clip-rule="evenodd" d="M31.8782 14.8734L29.7484 14.8777C28.578 14.8734 27.6276 15.8238 27.6276 16.9984C27.6234 18.173 28.578 19.1234 29.7484 19.1234H31.8739C33.0528 19.1277 33.9989 18.173 33.9989 16.9984C34.001 15.8259 33.0528 14.8734 31.8782 14.8734Z" fill="#F79E37"/>
<path fill-rule="evenodd" clip-rule="evenodd" d="M27.5177 9.4876L29.02 7.9847C29.8562 7.15276 29.8499 5.80976 29.02 4.97941C28.1918 4.14695 26.8472 4.14695 26.0174 4.97729L24.5145 6.48391C23.6847 7.31001 23.6847 8.6546 24.5145 9.48495C25.3401 10.3201 26.6894 10.3158 27.5177 9.4876Z" fill="#F79E37"/>
<path fill-rule="evenodd" clip-rule="evenodd" d="M17.0016 6.37235C18.1741 6.38085 19.1266 5.42195 19.1266 4.2516V2.1266C19.1266 0.947757 18.1762 0.00160111 17.0016 0.00160111C15.827 -0.00264889 14.8766 0.947757 14.8766 2.12288L14.8808 4.25213C14.8766 5.42194 15.827 6.37235 17.0016 6.37235Z" fill="#F79E37"/>
<path fill-rule="evenodd" clip-rule="evenodd" d="M6.48764 9.48547C7.31373 10.3153 8.6546 10.3153 9.48707 9.48335C10.3233 8.65938 10.319 7.31053 9.49132 6.48232L7.98842 4.97994C7.15435 4.14535 5.81348 4.15172 4.98314 4.97994C4.14642 5.80816 4.14642 7.15275 4.97676 7.9831L6.48764 9.48547Z" fill="#F79E37"/>
</g>
<defs>
<clipPath id="clip0_61_11">
<rect width="34" height="34" fill="white"/>
</clipPath>
</defs>
</svg>
