<svg width="19" height="20" viewBox="0 0 19 20" fill="none" xmlns="http://www.w3.org/2000/svg">
<g clip-path="url(#clip0_96_62)">
<path d="M0.588257 7.1313H18.2353M4.50982 1.36499V3.28709M14.3137 1.36499V3.28709M3.52943 10.0145H5.49022M8.43139 10.0145H10.3922M13.3334 10.0145H15.2941M3.52943 12.8976H5.49022M8.43139 12.8976H10.3922M13.3334 12.8976H15.2941M3.52943 15.7808H5.49022M8.43139 15.7808H10.3922M13.3334 15.7808H15.2941M3.72551 18.6639H15.0981C16.1962 18.6639 16.7453 18.6639 17.1647 18.4544C17.5336 18.2702 17.8336 17.9761 18.0216 17.6145C18.2353 17.2033 18.2353 16.665 18.2353 15.5886V6.36246C18.2353 5.28598 18.2353 4.74774 18.0216 4.33658C17.8336 3.97491 17.5336 3.68087 17.1647 3.49659C16.7453 3.28709 16.1962 3.28709 15.0981 3.28709H3.72551C2.62737 3.28709 2.0783 3.28709 1.65886 3.49659C1.28991 3.68087 0.989953 3.97491 0.801972 4.33658C0.588257 4.74774 0.588257 5.28598 0.588257 6.36246V15.5886C0.588257 16.665 0.588257 17.2033 0.801972 17.6145C0.989953 17.9761 1.28991 18.2702 1.65886 18.4544C2.0783 18.6639 2.62736 18.6639 3.72551 18.6639Z" stroke="white" stroke-width="2" stroke-linecap="round"/>
</g>
<defs>
<clipPath id="clip0_96_62">
<rect width="19" height="19" fill="white" transform="translate(0 0.5)"/>
</clipPath>
</defs>
</svg>
