<svg width="38" height="38" viewBox="0 0 38 38" fill="none" xmlns="http://www.w3.org/2000/svg">
<path d="M14.2553 8.01395C16.3664 4.22686 17.4219 2.33331 19 2.33331C20.5782 2.33331 21.6337 4.22685 23.7447 8.01393L24.2909 8.9937C24.8909 10.0699 25.1907 10.608 25.6585 10.963C26.1262 11.318 26.7085 11.4498 27.8735 11.7134L28.9342 11.9534C33.0335 12.8809 35.0834 13.3447 35.571 14.9129C36.0587 16.481 34.6614 18.1151 31.8665 21.3831L31.1435 22.2286C30.3494 23.1573 29.9522 23.6216 29.7735 24.1961C29.595 24.7706 29.655 25.3901 29.775 26.6293L29.8844 27.7573C30.3069 32.1176 30.5182 34.2978 29.2415 35.267C27.9647 36.2361 26.0455 35.3525 22.2072 33.5853L21.2142 33.128C20.1235 32.6258 19.5782 32.3746 19 32.3746C18.4219 32.3746 17.8765 32.6258 16.7859 33.128L15.7929 33.5853C11.9545 35.3525 10.0353 36.2361 8.75863 35.267C7.48191 34.2978 7.69318 32.1176 8.11571 27.7573L8.22501 26.6293C8.34509 25.3901 8.40513 24.7706 8.22648 24.1961C8.04784 23.6216 7.65076 23.1573 6.85658 22.2286L6.13354 21.3831C3.33879 18.1151 1.94141 16.481 2.42908 14.9129C2.91674 13.3447 4.96648 12.8809 9.06594 11.9534L10.1265 11.7134C11.2915 11.4498 11.8739 11.318 12.3416 10.963C12.8093 10.608 13.1093 10.0699 13.7092 8.9937L14.2553 8.01395Z" stroke="#F79E37" stroke-width="3"/>
</svg>
