<svg width="40" height="40" viewBox="0 0 40 40" fill="none" xmlns="http://www.w3.org/2000/svg">
<path d="M30.1745 6.16846L26.2791 10.0638L26.6413 10.4399C26.3833 10.6483 26.1222 10.8516 25.8687 11.0321C25.4597 11.3242 25.067 11.5586 24.8009 11.6685C24.7837 11.6762 24.7113 11.6965 24.5677 11.6959C24.3384 11.6984 23.9547 11.6399 23.4846 11.5682C23.0126 11.4971 22.4479 11.4196 21.8114 11.4189C21.2561 11.4171 20.6437 11.4844 19.999 11.6616C19.3555 11.485 18.7444 11.4189 18.1905 11.4196C17.5533 11.4196 16.9886 11.4971 16.5166 11.5689C16.0465 11.6406 15.6634 11.6992 15.4341 11.6966C15.2899 11.6978 15.2181 11.6763 15.2035 11.6692C14.9195 11.553 14.4913 11.2938 14.0505 10.973C13.8225 10.8072 13.59 10.6255 13.3594 10.4388L13.7209 10.0639L9.82547 6.16854L0 16.3452L3.89539 20.2406L5.03562 19.0596L7.5525 21.2563C7.62297 21.6774 7.75578 22.0751 7.90891 22.4525C8.00859 22.6927 8.11789 22.9238 8.22977 23.1411C7.98641 23.5439 7.85367 24.0038 7.85492 24.4701C7.8543 24.9326 7.98133 25.4052 8.24242 25.8251C8.63945 26.4635 9.27539 26.865 9.96203 26.9921C9.96594 27.4463 10.0917 27.9094 10.3477 28.321C10.8337 29.1024 11.6748 29.5356 12.5323 29.5343C12.5654 29.5343 12.5991 29.5292 12.632 29.528C12.6752 29.8913 12.7947 30.2535 12.9992 30.5825C13.4852 31.3638 14.3269 31.7971 15.1832 31.7958C15.2684 31.7958 15.3529 31.7869 15.4386 31.7786C15.4792 32.1058 15.5879 32.4323 15.7715 32.727C16.2143 33.4386 16.9804 33.8337 17.7598 33.8318C18.1803 33.8324 18.611 33.7181 18.9934 33.4805L20.1611 32.7538C20.3911 32.9024 20.6324 33.0333 20.8859 33.14C21.3579 33.3388 21.868 33.4608 22.3984 33.4614C22.9803 33.464 23.5946 33.3046 24.1231 32.9329C24.4674 32.6928 24.759 32.3637 24.9978 31.9756C25.0347 31.9769 25.0645 31.9833 25.1027 31.9839C25.3447 31.9839 25.6102 31.9477 25.8733 31.8657C26.1381 31.7851 26.4012 31.6643 26.682 31.5037C27.3515 31.1263 27.753 30.5711 27.948 30.0953C27.9912 29.9912 28.0223 29.8933 28.0503 29.7987C28.2123 29.7473 28.3673 29.6843 28.5077 29.6031C29.0254 29.3051 29.3627 28.8522 29.5705 28.3974C29.7788 27.938 29.8703 27.461 29.8716 27.0024C29.8716 26.9572 29.8659 26.9134 29.8639 26.8689C30.2025 26.7305 30.5067 26.538 30.7659 26.3112C31.0315 26.0786 31.2545 25.8081 31.4202 25.4993C31.5855 25.1919 31.696 24.8399 31.6966 24.4544C31.6973 24.2035 31.6458 23.9392 31.5334 23.6914C31.4971 23.6127 31.4457 23.5403 31.3987 23.4672C31.5963 23.1133 31.7976 22.7145 31.9627 22.2838C32.0866 21.9578 32.1909 21.6161 32.2505 21.2571L34.8748 18.9671L36.1046 20.2407L40 16.3452L30.1745 6.16846ZM10.8394 25.0336L10.7942 25.0622C10.6767 25.1347 10.5534 25.1671 10.4264 25.1677C10.1907 25.1664 9.96453 25.0514 9.8318 24.8374C9.75937 24.7199 9.72633 24.596 9.72633 24.4702C9.72758 24.2332 9.84195 24.0083 10.0554 23.8756L11.5984 22.917C11.7159 22.8439 11.8392 22.8122 11.9649 22.8109C12.2019 22.8134 12.4268 22.9265 12.5602 23.1418L13.3549 22.6482L12.5602 23.1424C12.6327 23.2593 12.665 23.3825 12.6657 23.5084C12.6644 23.6735 12.6053 23.8311 12.4987 23.9581L11.1734 24.7814C11.0528 24.8563 10.9429 24.9434 10.8394 25.0336ZM12.8995 27.5574C12.782 27.6299 12.6587 27.6629 12.5323 27.6629C12.2959 27.6617 12.0698 27.5473 11.937 27.3332C11.8645 27.2157 11.8322 27.0912 11.8316 26.9654C11.8321 26.8016 11.8912 26.644 11.9973 26.5182L13.3231 25.6931C13.4432 25.6187 13.5519 25.5324 13.6554 25.4421L13.7037 25.4129C13.8212 25.3399 13.9451 25.3074 14.0702 25.3074C14.3078 25.3087 14.532 25.4231 14.6654 25.6378C14.7378 25.7553 14.7702 25.8778 14.7709 26.0043C14.7696 26.2399 14.6559 26.4661 14.4399 26.6002L12.8995 27.5574ZM17.0915 28.861L15.5504 29.819C15.4335 29.8915 15.3102 29.9245 15.1832 29.9245C14.9475 29.9232 14.7213 29.8088 14.5886 29.5948C14.5162 29.4767 14.4838 29.3534 14.4831 29.227C14.4851 28.99 14.5987 28.7658 14.8122 28.6324L16.3552 27.6738C16.4727 27.6007 16.596 27.569 16.7217 27.569C16.9587 27.5696 17.1836 27.6839 17.317 27.8987C17.3894 28.0163 17.4218 28.1395 17.4225 28.2659C17.4212 28.5014 17.3075 28.7263 17.0915 28.861ZM19.4807 30.4237C19.5295 30.5018 19.5505 30.5831 19.5512 30.6682C19.5499 30.8264 19.4743 30.977 19.3288 31.0678L18.0055 31.8898C17.9268 31.9393 17.8455 31.9603 17.7597 31.9603C17.6009 31.9596 17.4504 31.8828 17.3608 31.7392C17.3119 31.6598 17.2909 31.5785 17.2902 31.4935C17.2921 31.3339 17.3677 31.1846 17.5106 31.0957H17.5112L18.8358 30.2724C18.9165 30.2223 18.9972 30.2013 19.0816 30.2013C19.2411 30.2025 19.3904 30.2781 19.4799 30.4224L20.2752 29.9294L19.4807 30.4237ZM29.7712 24.6143C29.7032 24.7458 29.5482 24.9173 29.352 25.0374C29.1556 25.1588 28.9276 25.2299 28.7091 25.2292C28.6315 25.2292 28.5566 25.2425 28.4835 25.2616C28.3501 25.2324 28.2166 25.1917 28.0852 25.1396C27.678 24.9808 27.2976 24.7235 27.0288 24.5063C26.8941 24.3977 26.7874 24.2999 26.7162 24.2319L26.6375 24.1538L26.6203 24.136L26.6177 24.1335H26.6172C26.3554 23.8488 25.912 23.8298 25.6268 24.0915C25.3416 24.3533 25.3219 24.7967 25.5843 25.0838C25.6077 25.1079 25.9604 25.4928 26.5378 25.8893C26.8275 26.0875 27.1737 26.2896 27.572 26.4458C27.6641 26.482 27.76 26.5156 27.8585 26.5462C27.8859 26.6078 27.9208 26.6663 27.962 26.7215L27.9602 26.7228C27.9652 26.7266 28.0034 26.8474 28.0002 27.0024C28.0047 27.2609 27.9106 27.5995 27.7753 27.7862C27.7093 27.8815 27.642 27.9418 27.5766 27.9793C27.5098 28.0162 27.4425 28.0403 27.3161 28.0422L27.2709 28.0416C27.2442 28.0403 27.2189 28.0448 27.1928 28.046C27.1916 28.046 27.1909 28.046 27.1909 28.046C26.5823 28.0486 26.0158 27.7875 25.5977 27.5017C25.3894 27.3606 25.2223 27.2171 25.1098 27.1117C25.0545 27.0596 25.012 27.0163 24.9859 26.9897L24.9587 26.9605L24.9542 26.9548H24.9536C24.7002 26.6638 24.2587 26.632 23.9658 26.8856C23.6723 27.1396 23.6405 27.5824 23.8946 27.8759L23.894 27.8753C23.9213 27.9058 24.2453 28.2792 24.8088 28.663C25.1798 28.9138 25.6638 29.1737 26.2387 29.3236C26.2324 29.3402 26.2286 29.3567 26.2209 29.3732C26.1473 29.5396 26.0418 29.7111 25.7547 29.8788C25.5609 29.9895 25.4224 30.0472 25.3252 30.0764C25.2274 30.1056 25.1728 30.1114 25.1029 30.112C25.0121 30.1133 24.8755 30.0929 24.648 30.0465C24.6068 30.0377 24.5655 30.0351 24.5242 30.0326C24.5089 30.0262 24.4944 30.0205 24.4778 30.0122C24.2453 29.9029 23.962 29.7053 23.753 29.537C23.6481 29.4538 23.5592 29.3776 23.4982 29.3236L23.4296 29.2613L23.4138 29.2461L23.4105 29.2436C23.1304 28.9756 22.6857 28.9857 22.4177 29.2658C22.1502 29.546 22.1604 29.9906 22.4405 30.2581C22.4552 30.2713 22.7505 30.5548 23.1647 30.852C23.2384 30.9042 23.3197 30.9569 23.401 31.0089C23.2866 31.1913 23.1673 31.3164 23.0504 31.3996C22.8636 31.528 22.6603 31.5889 22.3986 31.5903C22.1642 31.5909 21.8884 31.5331 21.6128 31.4162C21.5213 31.3781 21.4318 31.3241 21.3416 31.2739C21.3943 31.077 21.4235 30.8731 21.4229 30.6685C21.4235 30.2473 21.3079 29.8166 21.0703 29.4348C20.667 28.7862 19.9942 28.405 19.2897 28.3428C19.2897 28.3173 19.2941 28.292 19.2941 28.2659C19.2947 27.8041 19.1677 27.3302 18.9072 26.9109V26.9122C18.4206 26.1283 17.5782 25.695 16.7219 25.6969C16.6889 25.6969 16.6552 25.7026 16.6222 25.7039C16.579 25.3399 16.4595 24.9791 16.2551 24.65H16.2556C15.8586 24.0103 15.2221 23.6089 14.5354 23.4831C14.531 23.0288 14.4059 22.5657 14.1498 22.1541H14.1504C13.6645 21.3721 12.8214 20.9382 11.9651 20.9395C11.502 20.9395 11.03 21.0666 10.6101 21.327L9.70867 21.8873C9.68703 21.8378 9.65977 21.7895 9.64008 21.7399C9.4832 21.3645 9.38469 20.9941 9.37391 20.7388L9.35297 20.3436L6.3375 17.7112L12.0547 11.7899C12.347 12.0295 12.6468 12.2671 12.9543 12.4894C13.4637 12.8566 13.9688 13.1806 14.4846 13.3978C14.8156 13.5344 15.1383 13.5681 15.4344 13.5687C15.9083 13.5668 16.3427 13.4855 16.7957 13.4194C16.8249 13.4143 16.8554 13.4118 16.8852 13.4073C16.2627 13.9415 15.7195 14.5196 15.2602 15.0578C14.8734 15.512 14.5469 15.9401 14.2883 16.2895C14.033 16.637 13.836 16.9171 13.7496 17.0277C13.324 17.5816 13.1411 18.2442 13.1373 18.908C13.1391 19.5255 13.303 20.1683 13.7287 20.7115C13.9409 20.9802 14.2229 21.2153 14.5595 21.3753C14.8956 21.5367 15.2805 21.6192 15.6814 21.6192C16.1788 21.6179 16.7003 21.4973 17.2524 21.2653C18.9854 20.5323 20.7717 20.0438 22.1159 19.7427C22.788 19.5928 23.3502 19.4886 23.7421 19.4231C23.8159 19.411 23.8774 19.4009 23.9384 19.3908L29.819 24.4602L29.8215 24.4614L29.8234 24.4646C29.8227 24.4828 29.8137 24.5356 29.7712 24.6143ZM30.4516 20.3435L30.4312 20.7387C30.4204 20.9648 30.3435 21.2837 30.2145 21.6141C30.1491 21.7868 30.0691 21.961 29.9852 22.1324L24.8352 17.6932C24.6352 17.5205 24.3684 17.4404 24.106 17.4735C24.0603 17.4824 20.283 17.9563 16.5242 19.5406C16.1501 19.6988 15.8693 19.7477 15.6812 19.7464C15.5282 19.7464 15.4348 19.7191 15.3655 19.686C15.2652 19.6371 15.1934 19.5678 15.1223 19.4351C15.0543 19.3043 15.0079 19.1112 15.0086 18.9079C15.0048 18.6157 15.109 18.3184 15.2258 18.1774C15.3713 17.9894 15.5491 17.7328 15.7944 17.4011C16.1583 16.9081 16.6526 16.2703 17.242 15.6497C17.8302 15.0291 18.5145 14.4281 19.2316 14.0063C20.2017 13.4365 21.0282 13.2935 21.8115 13.291C22.2936 13.2903 22.756 13.3506 23.2071 13.4186C23.6594 13.4853 24.0952 13.5653 24.5678 13.5679C24.8632 13.5673 25.184 13.5336 25.5137 13.3989L25.5181 13.3977C26.034 13.1804 26.539 12.8564 27.0484 12.4892C27.3541 12.2681 27.6552 12.0293 27.9461 11.7905L33.5738 17.6189L30.4516 20.3435Z" fill="#F49C37"/>
</svg>
