<svg width="70" height="70" viewBox="0 0 70 70" fill="none" xmlns="http://www.w3.org/2000/svg">
<g clip-path="url(#clip0_61_208)">
<path d="M14.2966 19.1153L25.7212 30.5697C27.6823 28.6876 29.3827 27.0556 30.658 25.8294L19.133 14.2767L17.723 8.02602L7.43931 1.77551L4.6173 4.59971L1.79529 7.42159L8.04593 17.7054L14.2966 19.1153Z" fill="url(#paint0_linear_61_208)"/>
<path d="M49.0145 37.7753L65.9079 54.6152C69.0225 57.7277 69.0225 62.7757 65.9079 65.8902C62.7933 69.0028 57.7475 69.0028 54.6329 65.8902L37.7396 49.0503L49.0145 37.7753Z" fill="url(#paint1_linear_61_208)"/>
<path d="M62.9043 27.8098C68.7213 22.5312 69.6932 16.5327 68.3923 11.4741C68.3539 11.0724 68.2578 10.735 67.9074 10.4829L66.7367 9.52364C66.5338 9.33346 66.2603 9.24158 65.9869 9.26729C65.7113 9.29504 65.4613 9.436 65.2991 9.66035L58.5657 18.4146C58.3777 18.6731 58.0743 18.8205 57.756 18.8098L55.3122 18.9894C55.1029 18.9829 54.8998 18.9081 54.7354 18.7757L50.0143 14.7745C49.8221 14.6185 49.696 14.3963 49.6639 14.1506L49.3712 11.9374C49.337 11.6939 49.3989 11.446 49.5443 11.2452L55.8482 2.681C56.1345 2.28793 56.079 1.74325 55.7244 1.41211L54.1948 0.215824C53.8956 -0.0618513 53.556 -0.0234333 53.0924 0.0662541C48.7387 0.924985 41.3046 5.14194 39.4183 10.9696C37.7564 16.0987 38.3353 19.7153 38.3353 19.7153C38.3353 22.6057 37.3847 25.3913 36.2161 26.5599L3.36971 58.0952C3.30559 58.1528 3.24366 58.2126 3.18172 58.2747C0.468677 60.9877 0.472915 65.3905 3.09409 68.0116C5.71526 70.6328 10.1842 70.7012 12.8972 67.9881C13.0233 67.8621 13.1451 67.7318 13.2583 67.5972L44.9322 33.3577C48.8287 29.8883 56.5426 33.5841 62.9043 27.8098Z" fill="url(#paint2_linear_61_208)"/>
</g>
<defs>
<linearGradient id="paint0_linear_61_208" x1="16.2266" y1="1.77551" x2="16.2266" y2="30.5697" gradientUnits="userSpaceOnUse">
<stop stop-color="#F79E37"/>
<stop offset="1" stop-color="#E5462F"/>
</linearGradient>
<linearGradient id="paint1_linear_61_208" x1="52.9917" y1="37.7753" x2="52.9917" y2="68.2247" gradientUnits="userSpaceOnUse">
<stop stop-color="#F79E37"/>
<stop offset="1" stop-color="#E5462F"/>
</linearGradient>
<linearGradient id="paint2_linear_61_208" x1="35.0195" y1="0" x2="35.0195" y2="70.0002" gradientUnits="userSpaceOnUse">
<stop stop-color="#F79E37"/>
<stop offset="1" stop-color="#E5462F"/>
</linearGradient>
<clipPath id="clip0_61_208">
<rect width="70" height="70" fill="white"/>
</clipPath>
</defs>
</svg>
