<svg width="70" height="70" viewBox="0 0 70 70" fill="none" xmlns="http://www.w3.org/2000/svg">
<path d="M64.1667 35C64.1667 51.1082 51.1082 64.1667 35 64.1667C18.8917 64.1667 5.83337 51.1082 5.83337 35C5.83337 18.8917 18.8917 5.83337 35 5.83337C51.1082 5.83337 64.1667 18.8917 64.1667 35Z" fill="url(#paint0_linear_61_213)"/>
<path fill-rule="evenodd" clip-rule="evenodd" d="M35 21.1459C36.2081 21.1459 37.1875 22.1253 37.1875 23.3334V34.0938L43.8384 40.745C44.6927 41.5993 44.6927 42.9841 43.8384 43.8384C42.9841 44.6927 41.5992 44.6927 40.745 43.8384L33.4533 36.5468C33.0429 36.1367 32.8125 35.5802 32.8125 35V23.3334C32.8125 22.1253 33.7919 21.1459 35 21.1459Z" fill="white"/>
<defs>
<linearGradient id="paint0_linear_61_213" x1="35" y1="5.83337" x2="35" y2="64.1667" gradientUnits="userSpaceOnUse">
<stop stop-color="#F79E37"/>
<stop offset="1" stop-color="#E5462F"/>
</linearGradient>
</defs>
</svg>
