<svg width="114" height="115" viewBox="0 0 114 115" fill="none" xmlns="http://www.w3.org/2000/svg">
<path fill-rule="evenodd" clip-rule="evenodd" d="M56.9961 0.292969C60.9781 0.293147 64.5562 2.73786 66.0332 6.45996L68.4766 12.6201C69.3766 14.8886 71.1471 16.6936 73.3838 17.6279C75.6207 18.562 78.1372 18.5465 80.3623 17.585L86.4121 14.9717C90.0712 13.3908 94.3169 14.2155 97.1309 17.0518C99.9432 19.8876 100.759 24.1633 99.1934 27.8477L96.6006 33.9463C95.6459 36.1922 95.6313 38.7326 96.5586 40.9902C97.486 43.2476 99.2774 45.032 101.525 45.9385L107.636 48.4023C111.332 49.8927 113.753 53.4998 113.753 57.5078C113.753 61.516 111.332 65.1229 107.636 66.6133L101.525 69.0771C99.2773 69.9836 97.486 71.768 96.5586 74.0254C95.6313 76.2828 95.6463 78.8229 96.6006 81.0684L99.1934 87.167C100.711 90.7362 99.9921 94.8606 97.3887 97.6934L97.1309 97.9639C94.3169 100.8 90.0715 101.625 86.4121 100.043L80.3623 97.4297C78.1373 96.4685 75.6206 96.4529 73.3838 97.3867C71.1469 98.3207 69.3767 100.127 68.4766 102.396L66.0332 108.556C64.5563 112.278 60.9783 114.722 56.9961 114.723C53.0138 114.723 49.4359 112.278 47.959 108.556L45.5146 102.396C44.6145 100.127 42.8443 98.3206 40.6074 97.3867C38.3707 96.453 35.8543 96.4685 33.6289 97.4297L27.5791 100.044C23.9195 101.625 19.6741 100.8 16.8604 97.9639C14.0475 95.1277 13.2316 90.8512 14.7979 87.167L17.3906 81.0684C18.3452 78.8228 18.3602 76.2829 17.4326 74.0254C16.5049 71.768 14.7138 69.9836 12.4658 69.0771L6.35547 66.6133C2.65953 65.1228 0.238315 61.5159 0.238281 57.5078C0.238466 53.4998 2.65947 49.8927 6.35547 48.4023L12.4658 45.9385C14.7139 45.032 16.5049 43.2477 17.4326 40.9902C18.3601 38.7326 18.3455 36.1923 17.3906 33.9463L14.7979 27.8477C13.232 24.1633 14.0474 19.8876 16.8604 17.0518C19.6741 14.2153 23.9197 13.391 27.5791 14.9717L33.6289 17.585C35.8544 18.5465 38.3705 18.562 40.6074 17.6279C42.8443 16.6937 44.6146 14.8888 45.5146 12.6201L47.959 6.45996C49.436 2.73771 53.0139 0.293068 56.9961 0.292969ZM56.9961 32.3018C43.1875 32.3018 31.9924 43.587 31.9922 57.5078C31.9922 71.4288 43.1874 82.7148 56.9961 82.7148C70.8047 82.7147 81.999 71.4287 81.999 57.5078C81.9988 43.5871 70.8046 32.3019 56.9961 32.3018Z" fill="url(#paint0_linear_61_101)"/>
<defs>
<linearGradient id="paint0_linear_61_101" x1="56.9956" y1="0.292969" x2="56.9956" y2="114.723" gradientUnits="userSpaceOnUse">
<stop stop-color="#F79E37"/>
<stop offset="1" stop-color="#E5462F"/>
</linearGradient>
</defs>
</svg>
