<svg width="26" height="28" viewBox="0 0 26 28" fill="none" xmlns="http://www.w3.org/2000/svg">
<path d="M12.3334 2H5.93341C4.43995 2 3.6932 2 3.12277 2.29065C2.621 2.54631 2.21305 2.95425 1.9574 3.45603C1.66675 4.02645 1.66675 4.7732 1.66675 6.26667V21.7333C1.66675 23.2268 1.66675 23.9736 1.9574 24.544C2.21305 25.0457 2.621 25.4537 3.12277 25.7093C3.6932 26 4.43995 26 5.93341 26H8.33341M12.3334 2L20.3334 10M12.3334 2V7.86667C12.3334 8.6134 12.3334 8.98677 12.4787 9.27199C12.6066 9.52287 12.8105 9.72684 13.0614 9.85468C13.3466 10 13.7199 10 14.4667 10H20.3334M20.3334 10V11.3333M7.00008 20.6667H10.3334M7.00008 15.3333H13.6667M7.00008 10H8.33341M13.6667 26L16.3667 25.46C16.6021 25.4129 16.7198 25.3893 16.8295 25.3463C16.927 25.3081 17.0197 25.2585 17.1054 25.1987C17.2022 25.1312 17.287 25.0464 17.4569 24.8765L23.0001 19.3333C23.7365 18.5969 23.7365 17.4031 23.0001 16.6667C22.2637 15.9303 21.0698 15.9303 20.3334 16.6667L14.7902 22.2099C14.6203 22.3797 14.5355 22.4645 14.4681 22.5613C14.4082 22.6471 14.3586 22.7397 14.3205 22.8372C14.2774 22.9469 14.2538 23.0647 14.2067 23.3L13.6667 26Z" stroke="#F39C37" stroke-width="3" stroke-linecap="round" stroke-linejoin="round"/>
</svg>
