<svg width="21" height="17" viewBox="0 0 21 17" fill="none" xmlns="http://www.w3.org/2000/svg">
<path d="M20.9486 2.22194C20.8613 1.78086 20.6645 1.36397 20.3774 1.0135C20.3191 0.939914 20.2581 0.874453 20.1914 0.808049C19.6806 0.294533 18.97 0 18.2419 0H2.75805C2.02178 0 1.32932 0.28711 0.808213 0.808336C0.74226 0.874125 0.681105 0.940242 0.620566 1.01616C0.334688 1.36516 0.138756 1.78147 0.0535664 2.22317C0.0179648 2.39663 0 2.57636 0 2.75818V13.6329C0 14.0113 0.0768633 14.3797 0.229236 14.7299C0.361102 15.0409 0.561176 15.3358 0.808049 15.5825C0.870229 15.6444 0.931998 15.7015 0.997951 15.7572C1.49153 16.1659 2.11653 16.3909 2.75805 16.3909H18.2419C18.8875 16.3909 19.5119 16.1651 20.0042 15.7527C20.07 15.6994 20.131 15.6435 20.192 15.5825C20.4306 15.3442 20.6202 15.0702 20.7566 14.7682L20.7745 14.7251C20.9241 14.3816 21 14.0143 21 13.633V2.75818C21 2.57873 20.9827 2.39781 20.9486 2.22194ZM1.42829 1.76023C1.46729 1.70313 1.51709 1.64452 1.58062 1.5805C1.89599 1.26529 2.31422 1.09184 2.75801 1.09184H18.2418C18.6895 1.09184 19.1079 1.26558 19.4198 1.58111C19.4736 1.63554 19.525 1.69596 19.5699 1.75633L19.6883 1.91547L11.4237 9.11847C11.1689 9.34184 10.8408 9.46477 10.4999 9.46477C10.1623 9.46477 9.83452 9.34213 9.5767 9.11876L1.32029 1.91752L1.42829 1.76023ZM1.09737 13.729C1.0929 13.6993 1.09188 13.6664 1.09188 13.6329V2.98335L7.50549 8.57834L1.1566 14.1138L1.09737 13.729ZM19.0681 15.0795C18.8199 15.2227 18.534 15.2987 18.2419 15.2987H2.75805C2.46574 15.2987 2.17998 15.2227 1.93192 15.0795L1.67237 14.929L8.23225 9.21231L8.95117 9.83764C9.38241 10.212 9.93234 10.4184 10.5 10.4184C11.0697 10.4184 11.6205 10.212 12.0515 9.83764L12.7701 9.21203L19.3277 14.9294L19.0681 15.0795ZM19.9078 13.6329C19.9078 13.6659 19.9072 13.6984 19.9031 13.7274L19.8462 14.1159L13.4946 8.58133L19.9078 2.98606V13.6329Z" fill="#878787"/>
</svg>
