<svg width="23" height="23" viewBox="0 0 23 23" fill="none" xmlns="http://www.w3.org/2000/svg">
<path d="M15.5455 14.4939L15.0077 15.0451C15.0077 15.0451 13.7297 16.3557 10.2411 12.7785C6.75261 9.2014 8.03066 7.89089 8.03066 7.89089L8.36924 7.54368C9.20342 6.68838 9.28205 5.31518 8.55424 4.3127L7.06563 2.26203C6.16489 1.02126 4.42437 0.85735 3.39196 1.91597L1.53896 3.81603C1.02705 4.34094 0.684005 5.02139 0.725608 5.77623C0.832035 7.70736 1.67928 11.8624 6.407 16.7101C11.4205 21.8509 16.1247 22.0552 18.0484 21.8703C18.6568 21.8118 19.186 21.4923 19.6124 21.0549L21.2895 19.3354C22.4215 18.1746 22.1023 16.1845 20.6539 15.3726L18.3984 14.1082C17.4474 13.5751 16.2888 13.7316 15.5455 14.4939Z" fill="white"/>
</svg>
