<svg width="28" height="22" viewBox="0 0 28 22" fill="none" xmlns="http://www.w3.org/2000/svg">
<g clip-path="url(#clip0_229_1935)">
<path d="M1.25 5.3335L8.97072 10.4807C10.7883 11.6923 11.6972 12.2983 12.6794 12.5337C13.5475 12.7417 14.4525 12.7417 15.3206 12.5337C16.3028 12.2983 17.2117 11.6923 19.0293 10.4807L26.75 5.3335M5.78333 20.9168H22.2167C23.8035 20.9168 24.597 20.9168 25.203 20.608C25.7361 20.3364 26.1696 19.9029 26.4412 19.3698C26.75 18.7638 26.75 17.9703 26.75 16.3835V5.61683C26.75 4.03002 26.75 3.2366 26.4412 2.63052C26.1696 2.09739 25.7361 1.66395 25.203 1.39232C24.597 1.0835 23.8035 1.0835 22.2167 1.0835H5.78333C4.19652 1.0835 3.40311 1.0835 2.79703 1.39232C2.26389 1.66395 1.83045 2.09739 1.55882 2.63052C1.25 3.2366 1.25 4.03001 1.25 5.61683V16.3835C1.25 17.9703 1.25 18.7638 1.55882 19.3698C1.83045 19.9029 2.26389 20.3364 2.79703 20.608C3.40311 20.9168 4.19651 20.9168 5.78333 20.9168Z" stroke="#F79E37" stroke-width="2" stroke-linecap="round" stroke-linejoin="round"/>
</g>
<defs>
<clipPath id="clip0_229_1935">
<rect width="28" height="22" fill="white"/>
</clipPath>
</defs>
</svg>
