<svg width="31" height="31" viewBox="0 0 31 31" fill="none" xmlns="http://www.w3.org/2000/svg">
<path d="M10.389 7.8477L11.347 9.56441C12.2116 11.1136 11.8646 13.146 10.5028 14.5077C10.5028 14.5077 8.85119 16.1596 11.8458 19.1543C14.8395 22.148 16.4924 20.4974 16.4924 20.4974C17.8542 19.1356 19.8865 18.7885 21.4357 19.6531L23.1524 20.6112C25.4919 21.9167 25.7681 25.1974 23.7119 27.2537C22.4763 28.4893 20.9626 29.4508 19.2894 29.5141C16.4726 29.621 11.689 28.9081 6.89054 24.1096C2.09208 19.3111 1.3792 14.5275 1.48599 11.7108C1.54942 10.0375 2.51084 8.52389 3.74642 7.28832C5.80268 5.23206 9.08338 5.50834 10.389 7.8477Z" fill="#F59D37"/>
<path d="M15.1449 2.77497C15.2426 2.17137 15.8131 1.76192 16.4167 1.85963C16.4541 1.86679 16.5744 1.88925 16.6373 1.90328C16.7634 1.93134 16.939 1.97452 17.1581 2.03833C17.5962 2.16594 18.2083 2.37616 18.9428 2.71292C20.4135 3.38719 22.3707 4.56666 24.4016 6.59761C26.4326 8.62855 27.612 10.5857 28.2862 12.0564C28.6231 12.791 28.8333 13.403 28.9608 13.8411C29.0246 14.0602 29.0678 14.2359 29.0959 14.3619C29.1099 14.4248 29.1203 14.4754 29.1273 14.5128L29.1359 14.5588C29.2335 15.1624 28.8278 15.7567 28.2242 15.8544C27.6224 15.9518 27.0554 15.5443 26.9553 14.9436C26.9522 14.9274 26.9436 14.8841 26.9346 14.8432C26.9163 14.7614 26.8849 14.6318 26.835 14.4603C26.735 14.1174 26.5616 13.6076 26.2734 12.9792C25.698 11.724 24.6632 9.99067 22.8358 8.16334C21.0086 6.33603 19.2752 5.30123 18.02 4.72577C17.3916 4.43767 16.8819 4.26418 16.5388 4.16427C16.3674 4.11433 16.1519 4.06486 16.0701 4.04666C15.4693 3.94653 15.0474 3.37684 15.1449 2.77497Z" fill="#F59D37"/>
<path fill-rule="evenodd" clip-rule="evenodd" d="M15.4789 7.86725C15.6469 7.27931 16.2597 6.93887 16.8476 7.10685L16.5435 8.1714C16.8476 7.10685 16.8476 7.10685 16.8476 7.10685L16.8498 7.10747L16.8521 7.10812L16.8569 7.10955L16.8684 7.11297L16.8977 7.12207C16.9198 7.12918 16.9477 7.13845 16.9808 7.15022C17.0471 7.17375 17.1347 7.2072 17.2422 7.25326C17.4573 7.34543 17.751 7.48776 18.1121 7.70138C18.8346 8.129 19.821 8.83932 20.9798 9.99808C22.1386 11.1569 22.8488 12.1432 23.2764 12.8658C23.49 13.2267 23.6323 13.5206 23.7246 13.7356C23.7707 13.8431 23.8042 13.9307 23.8276 13.997C23.8394 14.0302 23.8486 14.058 23.8558 14.0802L23.8648 14.1094L23.8682 14.1209L23.8697 14.1258L23.8703 14.1281C23.8703 14.1281 23.871 14.1302 22.8064 14.4343L23.871 14.1302C24.039 14.7181 23.6985 15.3309 23.1107 15.4989C22.5277 15.6654 21.9203 15.3322 21.7462 14.7534L21.7408 14.7375C21.7329 14.7153 21.7167 14.6717 21.6894 14.6079C21.6348 14.4804 21.5357 14.2719 21.371 13.9936C21.0418 13.4374 20.4473 12.5971 19.414 11.5638C18.3808 10.5306 17.5404 9.9361 16.9843 9.60695C16.7059 9.44218 16.4975 9.34313 16.3699 9.28851C16.3062 9.26118 16.2625 9.24489 16.2403 9.23702L16.2244 9.23157C15.6457 9.05756 15.3124 8.45018 15.4789 7.86725Z" fill="#F59D37"/>
</svg>
