<svg width="29" height="29" viewBox="0 0 29 29" fill="none" xmlns="http://www.w3.org/2000/svg">
<g clip-path="url(#clip0_35_256)">
<path fill-rule="evenodd" clip-rule="evenodd" d="M6.14943 14.2909C6.14943 13.3833 6.30018 12.5131 6.56923 11.6969L1.85988 8.10071C0.942054 9.96424 0.424942 12.0641 0.424942 14.2909C0.424942 16.5158 0.941418 18.6144 1.85797 20.4766L6.56477 16.8734C6.29827 16.0611 6.14943 15.1941 6.14943 14.2909Z" fill="#FBBC05"/>
<path fill-rule="evenodd" clip-rule="evenodd" d="M14.4181 6.03394C16.3899 6.03394 18.1709 6.7326 19.5702 7.87588L23.6409 3.8109C21.1603 1.65139 17.98 0.317566 14.4181 0.317566C8.88828 0.317566 4.13568 3.47999 1.85988 8.10072L6.56922 11.697C7.65433 8.40305 10.7475 6.03394 14.4181 6.03394Z" fill="#EB4335"/>
<path fill-rule="evenodd" clip-rule="evenodd" d="M14.4181 22.5479C10.7475 22.5479 7.65433 20.1788 6.56922 16.8849L1.85988 20.4805C4.13568 25.1019 8.88828 28.2643 14.4181 28.2643C17.8312 28.2643 21.0897 27.0524 23.5353 24.7817L19.0651 21.3259C17.8039 22.1204 16.2156 22.5479 14.4181 22.5479Z" fill="#34A853"/>
<path fill-rule="evenodd" clip-rule="evenodd" d="M27.7753 14.2909C27.7753 13.4652 27.6481 12.576 27.4573 11.7503H14.4181V17.1491H21.9236C21.5483 18.9898 20.5268 20.4049 19.0651 21.3259L23.5353 24.7817C26.1044 22.3974 27.7753 18.8456 27.7753 14.2909Z" fill="#4285F4"/>
</g>
<defs>
<clipPath id="clip0_35_256">
<rect width="28.5818" height="28.5818" fill="white"/>
</clipPath>
</defs>
</svg>
