<svg width="18" height="16" viewBox="0 0 18 16" fill="none" xmlns="http://www.w3.org/2000/svg">
<path d="M12.2453 9.65653L11.8011 10.0574C11.8011 10.0574 10.7453 11.0106 7.86347 8.40898C4.98165 5.80745 6.03743 4.85436 6.03743 4.85436L6.31712 4.60184C7.00623 3.9798 7.07118 2.98112 6.46995 2.25204L5.24022 0.760641C4.49613 -0.141741 3.05832 -0.260944 2.20546 0.508961L0.674719 1.89082C0.251835 2.27258 -0.0315508 2.76745 0.00281669 3.31642C0.0907347 4.72088 0.790636 7.7427 4.69614 11.2683C8.83773 15.0071 12.7238 15.1557 14.3129 15.0212C14.8156 14.9787 15.2527 14.7463 15.6049 14.4282L16.9904 13.1777C17.9255 12.3334 17.6618 10.8861 16.4653 10.2956L14.6021 9.37603C13.8164 8.98831 12.8593 9.10217 12.2453 9.65653Z" fill="#969391"/>
</svg>
