<svg width="71" height="71" viewBox="0 0 71 71" fill="none" xmlns="http://www.w3.org/2000/svg">
<rect width="71" height="71" rx="20" fill="#FFDB95"/>
<path d="M21 28.3335L30.0832 34.389C32.2216 35.8145 33.2908 36.5273 34.4463 36.8043C35.4677 37.049 36.5323 37.049 37.5537 36.8043C38.7092 36.5273 39.7785 35.8145 41.9168 34.389L51 28.3335M26.3333 46.6668H45.6667C47.5335 46.6668 48.467 46.6668 49.18 46.3035C49.8072 45.984 50.3172 45.474 50.6367 44.8468C51 44.1338 51 43.2003 51 41.3335V28.6668C51 26.8 51 25.8666 50.6367 25.1535C50.3172 24.5263 49.8072 24.0164 49.18 23.6968C48.467 23.3335 47.5335 23.3335 45.6667 23.3335H26.3333C24.4665 23.3335 23.5331 23.3335 22.82 23.6968C22.1928 24.0164 21.6829 24.5263 21.3633 25.1535C21 25.8666 21 26.8 21 28.6668V41.3335C21 43.2003 21 44.1338 21.3633 44.8468C21.6829 45.474 22.1928 45.984 22.82 46.3035C23.5331 46.6668 24.4665 46.6668 26.3333 46.6668Z" stroke="#F79E37" stroke-width="4" stroke-linecap="round" stroke-linejoin="round"/>
</svg>
