<svg width="71" height="71" viewBox="0 0 71 71" fill="none" xmlns="http://www.w3.org/2000/svg">
<rect width="71" height="71" rx="20" fill="#F9A939"/>
<g clip-path="url(#clip0_121_394)">
<path fill-rule="evenodd" clip-rule="evenodd" d="M36 25.25C33.9288 25.25 32.25 26.9288 32.25 29C32.25 31.0712 33.9288 32.75 36 32.75C38.0712 32.75 39.75 31.0712 39.75 29C39.75 26.9288 38.0712 25.25 36 25.25ZM36 35.25C32.5487 35.25 29.75 32.4525 29.75 29C29.75 25.5475 32.5487 22.75 36 22.75C39.4513 22.75 42.25 25.5475 42.25 29C42.25 32.4525 39.4513 35.25 36 35.25ZM36 14C27.7163 14 21 20.7163 21 29C21 35.2725 33.5063 54.0137 36 54C38.455 54.0137 51 35.1875 51 29C51 20.7163 44.2838 14 36 14Z" fill="#FFF7EB"/>
</g>
<defs>
<clipPath id="clip0_121_394">
<rect width="40" height="40" fill="white" transform="translate(16 14)"/>
</clipPath>
</defs>
</svg>
