<svg width="71" height="71" viewBox="0 0 71 71" fill="none" xmlns="http://www.w3.org/2000/svg">
<rect width="71" height="71" rx="20" fill="#FFDB95"/>
<path d="M32.7294 24.8601L33.811 26.7983C34.7872 28.5475 34.3954 30.842 32.8579 32.3795C32.8579 32.3795 30.9932 34.2445 34.3742 37.6257C37.7542 41.0057 39.6204 39.142 39.6204 39.142C41.1579 37.6045 43.4524 37.2127 45.2015 38.1888L47.1397 39.2705C49.781 40.7445 50.0929 44.4485 47.7714 46.7702C46.3764 48.1652 44.6674 49.2507 42.7782 49.3222C39.598 49.4428 34.1972 48.638 28.7795 43.2203C23.3619 37.8027 22.557 32.4019 22.6776 29.2217C22.7492 27.3325 23.8347 25.6236 25.2297 24.2286C27.5513 21.907 31.2553 22.2189 32.7294 24.8601Z" fill="#F79E37"/>
<path d="M38.0992 19.1332C38.2095 18.4517 38.8537 17.9895 39.5352 18.0998C39.5774 18.1079 39.7132 18.1332 39.7842 18.1491C39.9265 18.1807 40.1249 18.2295 40.3722 18.3015C40.8669 18.4456 41.5579 18.683 42.3872 19.0632C44.0477 19.8244 46.2573 21.1561 48.5503 23.4491C50.8433 25.7421 52.175 27.9518 52.9362 29.6122C53.3165 30.4416 53.5539 31.1326 53.6979 31.6272C53.7699 31.8746 53.8187 32.073 53.8503 32.2152C53.8662 32.2863 53.8779 32.3434 53.8859 32.3856L53.8955 32.4376C54.0057 33.119 53.5477 33.79 52.8662 33.9003C52.1867 34.0103 51.5465 33.5502 51.4335 32.872C51.43 32.8537 51.4204 32.8048 51.4102 32.7587C51.3895 32.6663 51.354 32.52 51.2977 32.3264C51.1849 31.9391 50.989 31.3636 50.6637 30.6541C50.014 29.2369 48.8457 27.28 46.7825 25.2169C44.7195 23.1538 42.7625 21.9855 41.3454 21.3357C40.6359 21.0105 40.0604 20.8146 39.673 20.7018C39.4795 20.6454 39.2362 20.5896 39.1439 20.569C38.4655 20.456 37.9892 19.8128 38.0992 19.1332Z" fill="#F79E37"/>
<path fill-rule="evenodd" clip-rule="evenodd" d="M38.4762 24.882C38.6659 24.2182 39.3577 23.8339 40.0215 24.0235L39.6782 25.2254C40.0215 24.0235 40.0215 24.0235 40.0215 24.0235L40.024 24.0242L40.0265 24.0249L40.032 24.0266L40.045 24.0304L40.078 24.0407C40.103 24.0487 40.1345 24.0592 40.1719 24.0725C40.2467 24.099 40.3457 24.1368 40.467 24.1888C40.7099 24.2929 41.0415 24.4536 41.4492 24.6948C42.2649 25.1776 43.3785 25.9795 44.6869 27.2878C45.9952 28.5961 46.797 29.7097 47.2799 30.5255C47.521 30.933 47.6817 31.2648 47.7859 31.5076C47.8379 31.629 47.8757 31.7279 47.9022 31.8027C47.9155 31.8402 47.9259 31.8715 47.934 31.8967L47.9442 31.9297L47.948 31.9426L47.9497 31.9481L47.9504 31.9507C47.9504 31.9507 47.9512 31.9531 46.7492 32.2965L47.9512 31.9531C48.1409 32.6169 47.7564 33.3087 47.0927 33.4984C46.4345 33.6864 45.7487 33.3102 45.5522 32.6567L45.546 32.6388C45.5372 32.6137 45.5189 32.5644 45.488 32.4924C45.4264 32.3485 45.3145 32.1131 45.1285 31.7988C44.7569 31.1709 44.0857 30.2222 42.919 29.0556C41.7525 27.889 40.8037 27.2178 40.1759 26.8462C39.8615 26.6602 39.6262 26.5483 39.4822 26.4867C39.4102 26.4558 39.3609 26.4374 39.3359 26.4285L39.3179 26.4224C38.6645 26.2259 38.2882 25.5402 38.4762 24.882Z" fill="#F79E37"/>
</svg>
